<?xml version="1.0" encoding="UTF-8" standalone="no"?>
<svg xmlns:xlink="http://www.w3.org/1999/xlink" height="54.0px" width="54.0px" xmlns="http://www.w3.org/2000/svg">
  <g transform="matrix(1.0, 0.0, 0.0, 1.0, 27.0, 27.0)">
    <path d="M27.0 0.0 Q27.0 5.5 24.9 10.5 22.85 15.35 19.1 19.1 15.35 22.85 10.5 24.9 5.5 27.0 0.0 27.0 -5.5 27.0 -10.5 24.9 -15.35 22.85 -19.1 19.1 -22.85 15.35 -24.9 10.5 -27.0 5.5 -27.0 0.0 -27.0 -5.5 -24.9 -10.5 -22.85 -15.35 -19.1 -19.1 -15.35 -22.85 -10.5 -24.9 -5.5 -27.0 0.0 -27.0 5.5 -27.0 10.5 -24.9 15.35 -22.85 19.1 -19.1 22.85 -15.35 24.9 -10.5 27.0 -5.5 27.0 0.0" fill="#ffffff" fill-rule="evenodd" stroke="none"/>
    <path d="M26.0 0.0 Q26.0 5.3 23.95 10.1 22.0 14.8 18.4 18.4 14.8 22.0 10.1 23.95 5.3 26.0 0.0 26.0 -5.3 26.0 -10.1 23.95 -14.8 22.0 -18.4 18.4 -22.0 14.8 -23.95 10.1 -26.0 5.3 -26.0 0.0 -26.0 -5.3 -23.95 -10.1 -22.0 -14.8 -18.4 -18.4 -14.8 -22.0 -10.1 -23.95 -5.3 -26.0 0.0 -26.0 5.3 -26.0 10.1 -23.95 14.8 -22.0 18.4 -18.4 22.0 -14.8 23.95 -10.1 26.0 -5.3 26.0 0.0" fill="#2a4d7b" fill-rule="evenodd" stroke="none"/>
    <path d="M0.0 -9.95 Q-0.9 -13.0 -3.75 -13.65 -0.75 -14.65 0.0 -17.4 0.75 -14.35 3.75 -13.65 1.0 -12.7 0.0 -9.95" fill="#ffffff" fill-rule="evenodd" stroke="none"/>
    <path d="M0.0 1.55 Q-0.7 -0.85 -2.9 -1.35 -0.6 -2.1 0.0 -4.25 0.55 -1.9 2.9 -1.35 0.75 -0.6 0.0 1.55" fill="#ffffff" fill-rule="evenodd" stroke="none"/>
    <path d="M-14.15 7.95 Q-14.7 6.1 -16.4 5.65 -14.6 5.1 -14.15 3.4 -13.7 5.25 -11.85 5.65 -13.55 6.25 -14.15 7.95" fill="#ffffff" fill-rule="evenodd" stroke="none"/>
    <path d="M14.1 7.95 Q13.55 6.1 11.85 5.65 13.65 5.1 14.1 3.4 14.55 5.25 16.35 5.65 14.7 6.25 14.1 7.95" fill="#ffffff" fill-rule="evenodd" stroke="none"/>
    <path d="M5.0 7.05 Q4.7 5.9 3.65 5.65 4.75 5.3 5.0 4.3 5.3 5.45 6.4 5.65 5.35 6.0 5.0 7.05" fill="#ffffff" fill-rule="evenodd" stroke="none"/>
    <path d="M-5.1 7.05 Q-5.45 5.9 -6.45 5.65 -5.4 5.3 -5.1 4.3 -4.85 5.4 -3.75 5.65 -4.75 6.0 -5.1 7.05" fill="#ffffff" fill-rule="evenodd" stroke="none"/>
    <path d="M-8.0 -3.55 Q-8.35 -4.65 -9.35 -4.9 -8.3 -5.25 -8.0 -6.3 -7.75 -5.15 -6.65 -4.9 -7.65 -4.55 -8.0 -3.55" fill="#ffffff" fill-rule="evenodd" stroke="none"/>
    <path d="M0.0 10.2 Q5.4 10.2 10.3 12.35 15.05 14.4 18.65 18.1 15.05 21.85 10.3 23.9 5.4 26.0 0.0 26.0 -5.4 26.0 -10.3 23.9 -15.05 21.85 -18.65 18.1 -15.05 14.4 -10.3 12.35 -5.4 10.2 0.0 10.2" fill="#dfb460" fill-rule="evenodd" stroke="none"/>
    <path d="M-17.3 19.4 Q-13.85 16.05 -9.45 14.2 -4.95 12.35 0.0 12.35 4.95 12.35 9.45 14.2 13.85 16.05 17.3 19.4 13.8 22.55 9.45 24.25 4.9 26.0 0.0 26.0 -4.9 26.0 -9.45 24.25 -13.8 22.55 -17.3 19.4" fill="#ea7a49" fill-rule="evenodd" stroke="none"/>
    <path d="M7.95 -3.55 Q7.65 -4.65 6.6 -4.9 7.7 -5.25 7.95 -6.3 8.25 -5.15 9.35 -4.9 8.3 -4.55 7.95 -3.55" fill="#ffffff" fill-rule="evenodd" stroke="none"/>
    <path d="M-17.4 19.3 Q-14.75 17.25 -11.7 16.2 -8.55 15.05 -5.15 15.05 -0.3 15.05 4.0 17.35 8.2 19.55 11.1 23.5 5.85 26.0 0.0 26.0 -4.95 26.0 -9.5 24.2 -13.85 22.5 -17.4 19.3" fill="#c62339" fill-rule="evenodd" stroke="none"/>
    <path d="M-26.0 0.0 Q-26.0 -8.45 -21.05 -15.3 -16.15 -21.95 -8.35 -24.6 -7.5 -19.65 -8.65 -15.3 -9.6 -11.75 -11.3 -9.05 -12.4 -7.4 -14.0 -5.75 L-18.25 -1.6 Q-21.0 1.25 -22.5 3.4 -24.0 5.55 -24.5 8.8 -26.0 4.55 -26.0 0.0" fill="#253e67" fill-rule="evenodd" stroke="none"/>
    <path d="M8.45 -24.6 Q16.2 -21.9 21.05 -15.25 26.0 -8.45 26.0 0.0 26.0 4.45 24.55 8.6 24.05 5.5 22.6 3.4 L18.3 -1.6 14.1 -5.75 Q12.5 -7.4 11.4 -9.05 9.65 -11.75 8.75 -15.3 7.6 -19.7 8.45 -24.6" fill="#253e67" fill-rule="evenodd" stroke="none"/>
    <path d="M-26.0 0.0 Q-26.0 -6.25 -23.2 -11.75 -20.5 -17.1 -15.7 -20.7 -15.3 -17.15 -16.3 -13.95 -17.15 -11.15 -19.25 -8.0 L-22.1 -4.15 -25.95 1.25 -26.0 0.0" fill="#122b4d" fill-rule="evenodd" stroke="none"/>
    <path d="M15.8 -20.65 Q20.55 -17.0 23.25 -11.7 26.0 -6.2 26.0 0.0 L25.95 1.1 22.2 -4.15 19.3 -8.0 Q17.25 -11.15 16.35 -13.95 15.4 -17.15 15.8 -20.65" fill="#122b4d" fill-rule="evenodd" stroke="none"/>
  </g>
</svg>
